<svg xmlns="http://www.w3.org/2000/svg"
 width="41" height="41"
  viewBox="0 0 41 41">
  <path id="ic_notifications_none_24px" d="M24,42.5c2.75,0,5-1.846,5-4.1H19C19,40.654,21.25,42.5,24,42.5ZM39,30.192V19.936c0-6.3-4.075-11.569-11.25-12.964V5.577c0-1.7-1.675-3.077-3.75-3.077s-3.75,1.374-3.75,3.077V6.972C13.1,8.367,9,13.618,9,19.936V30.192l-5,4.1v2.051H44V34.295Zm-5,2.051H14V19.936c0-5.087,3.775-9.231,10-9.231s10,4.144,10,9.231Z" 
  transform="translate(-3.5 -2)" 
  fill="#000000" 
  stroke="#0a0a0a" 
  stroke-width="1"
   opacity="0.63"/>
</svg>
