<svg xmlns="http://www.w3.org/2000/svg" width="28.979" height="38.623" viewBox="0 0 28.979 38.623">
  <path id="Path_111" data-name="Path 111" d="M92.87,19.474a7.054,7.054,0,0,0-1.977-3.9l-3.925-3.932,2.279-3.946a5.131,5.131,0,0,0-8.887-5.13l-.9,1.556L77.3,1.955a4.622,4.622,0,0,0-6.538,6.534L75.3,13.037a4.613,4.613,0,0,0-3.32,4.68,4.617,4.617,0,0,0-4.393,6.532,4.627,4.627,0,0,0-2.264,7.775l4.492,4.519a7.059,7.059,0,0,0,5.024,2.08A17.709,17.709,0,0,0,92.953,20.932C92.953,19.862,92.978,19.751,92.87,19.474ZM82.45,3.771a2.716,2.716,0,0,1,4.7,2.716L85.2,9.87,81.227,5.889Zm8.088,17.161a15.271,15.271,0,0,1-15.7,15.277,4.658,4.658,0,0,1-3.313-1.371L67.037,30.32A2.207,2.207,0,0,1,69.937,27l3.735,3.734a1.207,1.207,0,0,0,1.707-1.707c-4.493-4.492-3.246-3.273-3.513-3.54-.3-.3.268.3-1.631-1.6a2.207,2.207,0,1,1,3.122-3.122c.181.181-1-1.025,5.159,5.13a1.207,1.207,0,1,0,1.708-1.707c-5.575-5.573-5.151-5.16-5.275-5.25a2.207,2.207,0,0,1,3.209-3.029c5.672,5.671,5.211,5.223,5.353,5.319a1.21,1.21,0,0,0,1.533-1.858L72.47,6.783a2.207,2.207,0,0,1,3.121-3.122c7.7,7.645,4.435,4.359,13.593,13.617a4.632,4.632,0,0,1,1.329,2.792,7.53,7.53,0,0,1,.025.862Z" transform="translate(-63.976 0)"/>
</svg>
