<svg xmlns="http://www.w3.org/2000/svg" width="54.065" height="40.913" viewBox="0 0 54.065 40.913">
  <path id="Path_112" data-name="Path 112" d="M42.977.5H11.087C4.974.5,0,5.071,0,10.689V26.427a10.178,10.178,0,0,0,7.844,9.638L13.2,40.986a1.684,1.684,0,0,0,2.24,0l4.912-4.515H42.977c6.114,0,11.087-4.571,11.087-10.189V10.689C54.065,5.071,49.091.5,42.977.5ZM50.9,26.282c0,4.013-3.553,7.278-7.92,7.278H19.7a1.658,1.658,0,0,0-1.12.426L14.319,37.9,9.786,33.732a1.622,1.622,0,0,0-.738-.383,7.261,7.261,0,0,1-5.881-6.922V10.689c0-4.013,3.553-7.278,7.92-7.278h31.89c4.367,0,7.92,3.265,7.92,7.278Zm0,0" transform="translate(0 -0.5)"/>
</svg>
