<svg xmlns="http://www.w3.org/2000/svg" width="100.5" height="28.5" viewBox="0 0 100.5 24.5">
  <g id="Group_16" data-name="Group 16" transform="translate(-624 -987.5)">
    <path id="bookmark" 
    d="M65.891,0H51.109A1.1,1.1,0,0,0,50,1.091V22.909a1.09,1.09,0,0,0,.628.983,1.123,1.123,0,0,0,1.173-.131l6.7-5.273,6.7,5.273a1.124,1.124,0,0,0,1.173.131A1.089,1.089,0,0,0,67,22.909V1.091A1.1,1.1,0,0,0,65.891,0ZM64.783,20.639l-5.59-4.4a1.123,1.123,0,0,0-1.385,0l-5.59,4.4V2.182H64.783Z" 
    transform="translate(638 988)"
    />
    <g id="Ellipse_129" data-name="Ellipse 129" transform="translate(718.5 1005.5)" stroke="#000" stroke-width="1">
      <circle cx="3" cy="3" r="3" stroke="none"/>
      <circle cx="3" cy="3" r="2.5" fill="none"/>
    </g>
    <g id="Ellipse_130" data-name="Ellipse 130" transform="translate(718.5 996.5)" stroke="#000" stroke-width="1">
      <circle cx="3" cy="3" r="3" stroke="none"/>
      <circle cx="3" cy="3" r="2.5" fill="none"/>
    </g>
    <g id="Ellipse_131" data-name="Ellipse 131" transform="translate(718.5 987.5)" stroke="#000" stroke-width="1">
      <circle cx="3" cy="3" r="3" stroke="none"/>
      <circle cx="3" cy="3" r="2.5" fill="none"/>
    </g>
    <path id="Path_111" data-name="Path 111" d="M81.388,12.1A4.434,4.434,0,0,0,80.2,9.676L77.831,7.233,79.2,4.781A3.244,3.244,0,0,0,78.072.426a3.046,3.046,0,0,0-4.224,1.167l-.541.967L72,1.215a2.726,2.726,0,0,0-3.939,0,2.938,2.938,0,0,0,0,4.06L70.8,8.1a2.861,2.861,0,0,0-2,2.908,2.86,2.86,0,0,0-2.647,4.059A2.906,2.906,0,0,0,64.79,19.9L67.5,22.707A4.189,4.189,0,0,0,70.524,24a10.407,10.407,0,0,0,4.331-.837,11,11,0,0,0,6.583-10.156c0-.665.015-.734-.05-.906ZM75.109,2.343a1.612,1.612,0,0,1,2.236-.617,1.717,1.717,0,0,1,.6,2.3l-1.177,2.1L74.372,3.659Zm4.874,10.664A9.345,9.345,0,0,1,70.524,22.5a2.764,2.764,0,0,1-2-.852L65.821,18.84a1.4,1.4,0,0,1,0-1.939,1.3,1.3,0,0,1,1.748-.121l2.251,2.32a.714.714,0,0,0,.514.22.754.754,0,0,0,.515-1.28c-2.708-2.791-1.956-2.034-2.117-2.2-.182-.188.161.184-.983-1a1.4,1.4,0,0,1,0-1.94,1.306,1.306,0,0,1,1.881,0c.109.112-.6-.637,3.109,3.188a.712.712,0,0,0,1.029,0,.767.767,0,0,0,0-1.061c-3.359-3.463-3.1-3.207-3.178-3.263a1.4,1.4,0,0,1,.053-1.881,1.3,1.3,0,0,1,1.881,0c3.418,3.524,3.14,3.246,3.225,3.305a.709.709,0,0,0,.828-.011.766.766,0,0,0,.1-1.143L69.095,4.215a1.4,1.4,0,0,1,0-1.939,1.3,1.3,0,0,1,1.881,0c4.641,4.751,2.672,2.708,8.191,8.461a2.916,2.916,0,0,1,.8,1.735,4.826,4.826,0,0,1,.015.535Z" transform="translate(560.023 988)"/>
    <path id="Path_112" data-name="Path 112" d="M23.848.5H6.152A6.073,6.073,0,0,0,0,6.477v9.232a5.906,5.906,0,0,0,4.353,5.654L7.324,24.25a.9.9,0,0,0,1.243,0L11.293,21.6H23.848A6.073,6.073,0,0,0,30,15.624V6.477A6.073,6.073,0,0,0,23.848.5Zm4.395,15.124a4.338,4.338,0,0,1-4.395,4.269H10.929a.892.892,0,0,0-.621.25L7.946,22.438,5.43,19.994a.885.885,0,0,0-.409-.225,4.2,4.2,0,0,1-3.263-4.061V6.477A4.338,4.338,0,0,1,6.152,2.208h17.7a4.338,4.338,0,0,1,4.395,4.269Zm0,0" transform="translate(649 987.5)"/>
    <g id="Ellipse_263" data-name="Ellipse 263" transform="translate(668 996)" stroke="#000" stroke-width="1">
      <circle cx="2.5" cy="2.5" r="2.5" stroke="none"/>
      <circle cx="2.5" cy="2.5" r="2" fill="none"/>
    </g>
    <g id="Ellipse_264" data-name="Ellipse 264" transform="translate(661 996)" stroke="#000" stroke-width="1">
      <circle cx="2.5" cy="2.5" r="2.5" stroke="none"/>
      <circle cx="2.5" cy="2.5" r="2" fill="none"/>
    </g>
    <g id="Ellipse_265" data-name="Ellipse 265" transform="translate(654 996)" stroke="#000" stroke-width="1">
      <circle cx="2.5" cy="2.5" r="2.5" stroke="none"/>
      <circle cx="2.5" cy="2.5" r="2" fill="none"/>
    </g>
  </g>
</svg>
